<svg width="18" height="18" viewBox="0 0 18 18" fill="none" xmlns="http://www.w3.org/2000/svg">
<path fill-rule="evenodd" clip-rule="evenodd" d="M11.219 1.45752C11.219 2.0098 11.6667 2.45752 12.219 2.45752L15.5425 2.45752V5.78104C15.5425 6.33332 15.9902 6.78104 16.5425 6.78104C17.0948 6.78104 17.5425 6.33332 17.5425 5.78104V1.45752C17.5425 0.905236 17.0948 0.457521 16.5425 0.45752L12.219 0.45752C11.6667 0.457519 11.219 0.905235 11.219 1.45752Z" fill="white"/>
<path fill-rule="evenodd" clip-rule="evenodd" d="M16.5425 11.219C15.9902 11.219 15.5425 11.6667 15.5425 12.219L15.5425 15.5425L12.219 15.5425C11.6667 15.5425 11.219 15.9902 11.219 16.5425C11.219 17.0948 11.6667 17.5425 12.219 17.5425H16.5425C17.0948 17.5425 17.5425 17.0948 17.5425 16.5425L17.5425 12.219C17.5425 11.6667 17.0948 11.219 16.5425 11.219Z" fill="white"/>
<path fill-rule="evenodd" clip-rule="evenodd" d="M1.45756 11.219C2.00984 11.219 2.45756 11.6667 2.45756 12.219L2.45756 15.5425L5.78108 15.5425C6.33336 15.5425 6.78108 15.9902 6.78108 16.5425C6.78108 17.0948 6.33336 17.5425 5.78108 17.5425L1.45756 17.5425C0.905271 17.5425 0.457556 17.0948 0.457555 16.5425L0.457555 12.219C0.457555 11.6667 0.905271 11.219 1.45756 11.219Z" fill="white"/>
<path fill-rule="evenodd" clip-rule="evenodd" d="M6.78104 1.45752C6.78104 2.0098 6.33333 2.45752 5.78104 2.45752L2.45752 2.45752L2.45752 5.78104C2.45752 6.33333 2.0098 6.78104 1.45752 6.78104C0.905235 6.78104 0.45752 6.33332 0.45752 5.78104L0.457521 1.45752C0.457521 0.905235 0.905236 0.45752 1.45752 0.45752L5.78104 0.45752C6.33333 0.45752 6.78104 0.905235 6.78104 1.45752Z" fill="white"/>
</svg>
