<svg width="38" height="38" viewBox="0 0 38 38" fill="none" xmlns="http://www.w3.org/2000/svg">
<circle opacity="0.2" cx="19" cy="19" r="19" fill="#3C7DFF"/>
<path d="M19 15.8696C17.2739 15.8696 15.8696 17.2739 15.8696 19C15.8696 20.7261 17.2739 22.1304 19 22.1304C20.7261 22.1304 22.1304 20.7261 22.1304 19C22.1304 17.2739 20.7262 15.8696 19 15.8696Z" fill="#3C7DFF"/>
<path d="M25.3878 12.6122C24.3481 11.5725 22.9712 11 21.5105 11H16.4895C15.0288 11 13.6517 11.5725 12.6122 12.6122C11.5725 13.6517 11 15.0288 11 16.4895V21.5104C11 22.9712 11.5725 24.3483 12.6122 25.3878C13.6517 26.4275 15.0288 27 16.4895 27H21.5105C22.9712 27 24.3483 26.4275 25.3878 25.3878C26.4274 24.3483 27 22.9712 27 21.5104V16.4895C27 15.0288 26.4274 13.6517 25.3878 12.6122ZM19 23.2344C16.6652 23.2344 14.7656 21.3348 14.7656 19C14.7656 16.6652 16.6652 14.7656 19 14.7656C21.3348 14.7656 23.2344 16.6652 23.2344 19C23.2344 21.3348 21.3348 23.2344 19 23.2344ZM23.6909 14.972C23.6038 15.0592 23.4828 15.1093 23.3595 15.1093C23.2361 15.1093 23.1154 15.0592 23.0282 14.972C22.9407 14.8848 22.8907 14.7639 22.8907 14.6405C22.8907 14.5171 22.9407 14.3961 23.0282 14.309C23.1154 14.2217 23.236 14.1718 23.3595 14.1718C23.4828 14.1718 23.6038 14.2217 23.6909 14.309C23.7782 14.3961 23.8282 14.5171 23.8282 14.6405C23.8282 14.7638 23.7782 14.8848 23.6909 14.972Z" fill="#3C7DFF"/>
</svg>
