<svg width="104" height="19" viewBox="0 0 104 19" fill="none" xmlns="http://www.w3.org/2000/svg">
<path d="M6.128 18.288C4.896 18.288 3.824 18.064 2.912 17.616C2 17.168 1.296 16.544 0.8 15.744C0.304 14.944 0.0560001 14.016 0.0560001 12.96H2.168C2.168 13.616 2.32 14.224 2.624 14.784C2.928 15.328 3.368 15.768 3.944 16.104C4.536 16.424 5.264 16.584 6.128 16.584C7.264 16.584 8.144 16.312 8.768 15.768C9.392 15.224 9.704 14.544 9.704 13.728C9.704 13.056 9.56 12.52 9.272 12.12C8.984 11.704 8.592 11.368 8.096 11.112C7.616 10.856 7.056 10.632 6.416 10.44C5.792 10.248 5.136 10.032 4.448 9.792C3.152 9.344 2.192 8.792 1.568 8.136C0.944 7.464 0.632 6.592 0.632 5.52C0.616 4.624 0.824 3.832 1.256 3.144C1.688 2.44 2.296 1.896 3.08 1.512C3.88 1.112 4.824 0.912 5.912 0.912C6.984 0.912 7.912 1.112 8.696 1.512C9.496 1.912 10.112 2.464 10.544 3.168C10.992 3.872 11.224 4.672 11.24 5.568H9.128C9.128 5.104 9.008 4.648 8.768 4.2C8.528 3.736 8.16 3.36 7.664 3.072C7.184 2.784 6.576 2.64 5.84 2.64C4.928 2.624 4.176 2.856 3.584 3.336C3.008 3.816 2.72 4.48 2.72 5.328C2.72 6.048 2.92 6.6 3.32 6.984C3.736 7.368 4.312 7.688 5.048 7.944C5.784 8.184 6.632 8.464 7.592 8.784C8.392 9.072 9.112 9.408 9.752 9.792C10.392 10.176 10.888 10.672 11.24 11.28C11.608 11.888 11.792 12.664 11.792 13.608C11.792 14.408 11.584 15.168 11.168 15.888C10.752 16.592 10.12 17.168 9.272 17.616C8.44 18.064 7.392 18.288 6.128 18.288ZM19.235 18C18.147 18 17.291 17.736 16.667 17.208C16.043 16.68 15.731 15.728 15.731 14.352V7.8H13.667V6.096H15.731L15.995 3.24H17.747V6.096H21.251V7.8H17.747V14.352C17.747 15.104 17.899 15.616 18.203 15.888C18.507 16.144 19.043 16.272 19.811 16.272H21.059V18H19.235ZM28.9081 18.288C27.7881 18.288 26.7801 18.032 25.8841 17.52C24.9881 17.008 24.2761 16.288 23.7481 15.36C23.2361 14.416 22.9801 13.312 22.9801 12.048C22.9801 10.784 23.2441 9.688 23.7721 8.76C24.3001 7.816 25.0121 7.088 25.9081 6.576C26.8201 6.064 27.8361 5.808 28.9561 5.808C30.0761 5.808 31.0841 6.064 31.9801 6.576C32.8761 7.088 33.5801 7.816 34.0921 8.76C34.6201 9.688 34.8841 10.784 34.8841 12.048C34.8841 13.312 34.6201 14.416 34.0921 15.36C33.5641 16.288 32.8441 17.008 31.9321 17.52C31.0361 18.032 30.0281 18.288 28.9081 18.288ZM28.9081 16.56C29.5961 16.56 30.2361 16.392 30.8281 16.056C31.4201 15.72 31.9001 15.216 32.2681 14.544C32.6361 13.872 32.8201 13.04 32.8201 12.048C32.8201 11.056 32.6361 10.224 32.2681 9.552C31.9161 8.88 31.4441 8.376 30.8521 8.04C30.2601 7.704 29.6281 7.536 28.9561 7.536C28.2681 7.536 27.6281 7.704 27.0361 8.04C26.4441 8.376 25.9641 8.88 25.5961 9.552C25.2281 10.224 25.0441 11.056 25.0441 12.048C25.0441 13.04 25.2281 13.872 25.5961 14.544C25.9641 15.216 26.4361 15.72 27.0121 16.056C27.6041 16.392 28.2361 16.56 28.9081 16.56ZM37.6873 18V6.096H39.5113L39.6313 8.232C40.0153 7.48 40.5673 6.888 41.2873 6.456C42.0073 6.024 42.8233 5.808 43.7353 5.808C45.1433 5.808 46.2633 6.24 47.0953 7.104C47.9433 7.952 48.3672 9.264 48.3672 11.04V18H46.3513V11.256C46.3513 8.776 45.3273 7.536 43.2793 7.536C42.2553 7.536 41.3993 7.912 40.7113 8.664C40.0393 9.4 39.7033 10.456 39.7033 11.832V18H37.6873ZM56.7736 18.288C55.6376 18.288 54.6296 18.032 53.7496 17.52C52.8696 16.992 52.1736 16.264 51.6616 15.336C51.1656 14.408 50.9176 13.312 50.9176 12.048C50.9176 10.8 51.1656 9.712 51.6616 8.784C52.1576 7.84 52.8456 7.112 53.7256 6.6C54.6216 6.072 55.6536 5.808 56.8216 5.808C57.9736 5.808 58.9656 6.072 59.7976 6.6C60.6456 7.112 61.2936 7.792 61.7416 8.64C62.1896 9.488 62.4136 10.4 62.4136 11.376C62.4136 11.552 62.4056 11.728 62.3896 11.904C62.3896 12.08 62.3896 12.28 62.3896 12.504H52.9096C52.9576 13.416 53.1656 14.176 53.5336 14.784C53.9176 15.376 54.3896 15.824 54.9496 16.128C55.5256 16.432 56.1336 16.584 56.7736 16.584C57.6056 16.584 58.3016 16.392 58.8616 16.008C59.4216 15.624 59.8296 15.104 60.0856 14.448H62.0776C61.7576 15.552 61.1416 16.472 60.2296 17.208C59.3336 17.928 58.1816 18.288 56.7736 18.288ZM56.7736 7.512C55.8136 7.512 54.9576 7.808 54.2056 8.4C53.4696 8.976 53.0456 9.824 52.9336 10.944H60.4216C60.3736 9.872 60.0056 9.032 59.3176 8.424C58.6296 7.816 57.7816 7.512 56.7736 7.512Z" fill="black"/>
<path d="M68.9737 18V3.672H64.0777V1.2H76.9657V3.672H72.0457V18H68.9737ZM80.8254 4.248C80.2654 4.248 79.8014 4.08 79.4334 3.744C79.0814 3.408 78.9054 2.984 78.9054 2.472C78.9054 1.96 79.0814 1.544 79.4334 1.224C79.8014 0.887999 80.2654 0.719999 80.8254 0.719999C81.3854 0.719999 81.8414 0.887999 82.1934 1.224C82.5614 1.544 82.7454 1.96 82.7454 2.472C82.7454 2.984 82.5614 3.408 82.1934 3.744C81.8414 4.08 81.3854 4.248 80.8254 4.248ZM79.2894 18V6.096H82.3614V18H79.2894ZM85.5678 18V0.719999H88.6398V18H85.5678ZM97.5628 18.288C96.3628 18.288 95.2988 18.032 94.3708 17.52C93.4428 17.008 92.7148 16.288 92.1868 15.36C91.6588 14.432 91.3948 13.36 91.3948 12.144C91.3948 10.912 91.6508 9.816 92.1628 8.856C92.6908 7.896 93.4108 7.152 94.3228 6.624C95.2508 6.08 96.3388 5.808 97.5868 5.808C98.7548 5.808 99.7868 6.064 100.683 6.576C101.579 7.088 102.275 7.792 102.771 8.688C103.283 9.568 103.539 10.552 103.539 11.64C103.539 11.816 103.531 12 103.515 12.192C103.515 12.384 103.507 12.584 103.491 12.792H94.4428C94.5068 13.72 94.8268 14.448 95.4028 14.976C95.9948 15.504 96.7068 15.768 97.5388 15.768C98.1628 15.768 98.6828 15.632 99.0988 15.36C99.5308 15.072 99.8508 14.704 100.059 14.256H103.179C102.955 15.008 102.579 15.696 102.051 16.32C101.539 16.928 100.899 17.408 100.131 17.76C99.3788 18.112 98.5228 18.288 97.5628 18.288ZM97.5868 8.304C96.8348 8.304 96.1708 8.52 95.5948 8.952C95.0188 9.368 94.6508 10.008 94.4908 10.872H100.419C100.371 10.088 100.083 9.464 99.5548 9C99.0268 8.536 98.3708 8.304 97.5868 8.304Z" fill="#0075FF"/>
</svg>
