<svg width="38" height="38" viewBox="0 0 38 38" fill="none" xmlns="http://www.w3.org/2000/svg">
<circle opacity="0.2" cx="19" cy="19" r="19" fill="#3C7DFF"/>
<path d="M23.1611 11.0033L21.0024 11C18.5772 11 17.0099 12.5455 17.0099 14.9376V16.7531H14.8394C14.6519 16.7531 14.5 16.8993 14.5 17.0795V19.71C14.5 19.8903 14.6521 20.0363 14.8394 20.0363H17.0099V26.6738C17.0099 26.854 17.1618 27 17.3493 27H20.1812C20.3687 27 20.5206 26.8539 20.5206 26.6738V20.0363H23.0584C23.2459 20.0363 23.3978 19.8903 23.3978 19.71L23.3989 17.0795C23.3989 16.993 23.363 16.9101 23.2995 16.8488C23.2359 16.7876 23.1493 16.7531 23.0593 16.7531H20.5206V15.2141C20.5206 14.4744 20.704 14.0989 21.7065 14.0989L23.1607 14.0984C23.3481 14.0984 23.5 13.9522 23.5 13.7721V11.3296C23.5 11.1496 23.3483 11.0037 23.1611 11.0033Z" fill="#3C7DFF"/>
</svg>
