<svg width="32" height="32" viewBox="0 0 32 32" fill="none" xmlns="http://www.w3.org/2000/svg">
<path d="M0 16C0 7.16344 7.16344 0 16 0V0C24.8366 0 32 7.16344 32 16V16C32 24.8366 24.8366 32 16 32V32C7.16344 32 0 24.8366 0 16V16Z" fill="black" fill-opacity="0.06"/>
<path fill-rule="evenodd" clip-rule="evenodd" d="M18.7069 9.95952C19.0975 10.35 19.0975 10.9832 18.7069 11.3737L14.0807 16L18.7069 20.6262C19.0975 21.0167 19.0975 21.6499 18.7069 22.0404C18.3164 22.4309 17.6833 22.4309 17.2927 22.0404L11.9594 16.7071C11.5689 16.3165 11.5689 15.6834 11.9594 15.2929L17.2927 9.95952C17.6833 9.56899 18.3164 9.56899 18.7069 9.95952Z" fill="#1E1E22"/>
</svg>
