<svg width="38" height="38" viewBox="0 0 38 38" fill="none" xmlns="http://www.w3.org/2000/svg">
<circle opacity="0.2" cx="19" cy="19" r="19" fill="#3C7DFF"/>
<path d="M26.996 27L27 26.9993V21.1314C27 18.2607 26.382 16.0494 23.026 16.0494C21.4127 16.0494 20.33 16.9347 19.888 17.7741H19.8413V16.3174H16.6593V26.9993H19.9727V21.71C19.9727 20.3174 20.2367 18.9707 21.9613 18.9707C23.6607 18.9707 23.686 20.56 23.686 21.7994V27H26.996Z" fill="#3C7DFF"/>
<path d="M11.264 16.3178H14.5813V26.9998H11.264V16.3178Z" fill="#3C7DFF"/>
<path d="M12.9213 11C11.8607 11 11 11.8607 11 12.9213C11 13.982 11.8607 14.8606 12.9213 14.8606C13.982 14.8606 14.8427 13.982 14.8427 12.9213C14.842 11.8607 13.9813 11 12.9213 11Z" fill="#3C7DFF"/>
</svg>
