<svg width="24" height="24" viewBox="0 0 24 24" fill="none" xmlns="http://www.w3.org/2000/svg">
<path d="M11.9998 0.666656C5.74061 0.666656 0.666504 5.74076 0.666504 12C0.666504 18.2592 5.74061 23.3333 11.9998 23.3333C17.89 23.3333 22.73 18.8404 23.281 13.0943C23.3066 12.8269 23.1692 12.5702 22.9325 12.4432C22.6957 12.3162 22.4059 12.3437 22.1973 12.513C21.0511 13.4431 19.5914 14 17.9998 14C14.3179 14 11.3332 11.0152 11.3332 7.33332C11.3332 5.14652 12.3854 3.20564 14.014 1.98888C14.2293 1.828 14.3269 1.55354 14.2616 1.29281C14.1963 1.03207 13.9808 0.836066 13.715 0.795702C13.1553 0.710686 12.5825 0.666656 11.9998 0.666656Z" fill="#1E1E22"/>
</svg>
