<svg width="27" height="22" viewBox="0 0 27 22" fill="none" xmlns="http://www.w3.org/2000/svg">
<path fill-rule="evenodd" clip-rule="evenodd" d="M13.185 1.09973C14.5883 -0.0697305 16.7297 0.775288 16.9563 2.58794C17.6546 8.17425 17.6546 13.8258 16.9563 19.4121C16.7297 21.2247 14.5883 22.0698 13.185 20.9003L7.39733 16.0773C7.33742 16.0274 7.26191 16 7.18393 16H2.33333C1.04467 16 0 14.9553 0 13.6667V8.33335C0 7.04469 1.04467 6.00002 2.33333 6.00002H7.18393C7.26191 6.00002 7.33742 5.97268 7.39733 5.92276L13.185 1.09973ZM14.9717 2.83601C14.9413 2.59261 14.6538 2.47915 14.4653 2.63618L8.6777 7.4592C8.25836 7.80865 7.72979 8.00002 7.18393 8.00002H2.33333C2.14924 8.00002 2 8.14926 2 8.33335V13.6667C2 13.8508 2.14924 14 2.33333 14H7.18393C7.72979 14 8.25836 14.1914 8.6777 14.5408L14.4653 19.3639C14.6538 19.5209 14.9413 19.4074 14.9717 19.164C15.6494 13.7424 15.6494 8.25758 14.9717 2.83601Z" fill="white"/>
<path d="M19.9359 7.93589C20.3264 7.54536 20.9596 7.54536 21.3501 7.93589L23 9.5858L24.6499 7.93588C25.0404 7.54536 25.6736 7.54536 26.0641 7.93588C26.4547 8.32641 26.4547 8.95957 26.0641 9.3501L24.4142 11L26.0641 12.6499C26.4547 13.0405 26.4547 13.6736 26.0641 14.0641C25.6736 14.4547 25.0404 14.4547 24.6499 14.0641L23 12.4142L21.3501 14.0641C20.9596 14.4547 20.3264 14.4547 19.9359 14.0641C19.5454 13.6736 19.5454 13.0405 19.9359 12.6499L21.5858 11L19.9359 9.3501C19.5454 8.95958 19.5454 8.32641 19.9359 7.93589Z" fill="white"/>
</svg>
